<?xml version="1.0" encoding="UTF-8"?>
<svg width="113px" height="24px" viewBox="0 0 113 24" version="1.1" xmlns="http://www.w3.org/2000/svg" xmlns:xlink="http://www.w3.org/1999/xlink">
    <!-- Generator: Sketch 50.2 (55047) - http://www.bohemiancoding.com/sketch -->
    <title>자산 1</title>
    <desc>Created with Sketch.</desc>
    <defs></defs>
    <g id="Page-1" stroke="none" stroke-width="1" fill="none" fill-rule="evenodd">
        <g id="Desktop" transform="translate(-21.000000, -18.000000)" fill="#221E1F" fill-rule="nonzero">
            <g id="자산-1" transform="translate(21.000000, 18.000000)">
                <polygon id="Shape" points="12.67 2.88 7.31 2.88 7.31 4.4 11.13 4.4 11.13 8.65 12.67 8.65"></polygon>
                <polygon id="Shape" points="18 14.52 18 13.56 20 13.56 20 12.12 16.16 12.12 16.16 11.11 19.79 11.11 19.79 7.21 16.16 7.21 16.16 2.91 14.62 2.91 14.62 8.65 14.62 8.65 14.63 8.65 18.33 8.65 18.33 9.67 14.63 9.67 14.63 13.56 16.44 13.56 16.44 14.52 13.3 14.52 13.3 16.04 21.13 16.04 21.13 14.52"></polygon>
                <path d="M4,14.48 C4.1138257,14.5505623 4.24618581,14.5853939 4.38,14.58 C4.49700038,14.5808921 4.61286741,14.5570371 4.72,14.51 C4.82294664,14.4709384 4.91785158,14.4133175 5,14.34 L5,13.71 L4.39,13.71 L4.39,14 L4.71,14 L4.71,14.2 C4.66572874,14.2412155 4.61507249,14.2749863 4.56,14.3 C4.50082082,14.3140356 4.43917918,14.3140356 4.38,14.3 C4.26702959,14.3000526 4.16022485,14.2484917 4.09,14.16 C4.01994311,14.035306 3.9886113,13.8925723 4,13.75 C3.99123753,13.6081517 4.02993827,13.4674217 4.11,13.35 C4.18028687,13.2627474 4.28809777,13.2144184 4.4,13.22 C4.47636386,13.2157108 4.55148246,13.2407503 4.61,13.29 C4.66537291,13.3363489 4.70401471,13.3995809 4.72,13.47 L5,13.41 C4.97775091,13.2781539 4.9106309,13.1580445 4.81,13.07 C4.67955207,12.9962729 4.52709694,12.9714546 4.38,13 C4.26583012,12.9948059 4.15222934,13.018903 4.05,13.07 C3.93088147,13.1393527 3.83646538,13.2442595 3.78,13.37 C3.71702729,13.5079458 3.68625122,13.6584066 3.69,13.81 C3.69041296,13.9537475 3.71754031,14.0961661 3.77,14.23 C3.82428147,14.3314498 3.90341748,14.4174672 4,14.48 Z" id="Shape"></path>
                <rect id="Rectangle-path" x="5.41" y="12.97" width="1" height="1.58"></rect>
                <path d="M8.7,14.37 C8.82757817,14.1968326 8.89118871,13.9847975 8.88,13.77 C8.89269966,13.5519286 8.82905451,13.3362423 8.7,13.16 C8.56388251,13.0376192 8.38187845,12.9793779 8.2,13 C8.01740458,12.9871892 7.83947671,13.0613259 7.72,13.2 C7.66743667,13.2674721 7.62374671,13.341409 7.59,13.42 C7.54672927,13.5487907 7.5264206,13.6841818 7.53,13.82 C7.51881129,14.0347975 7.58242183,14.2468326 7.71,14.42 C7.83646771,14.5618229 8.02019211,14.6389871 8.21,14.63 C8.40435674,14.6222969 8.58466267,14.5266243 8.7,14.37 Z M7.93,14.17 C7.84542898,14.0509107 7.80639723,13.9054287 7.82,13.76 C7.80813258,13.6147233 7.84700737,13.4698264 7.93,13.35 C7.99606159,13.2629913 8.10090217,13.2143153 8.21,13.22 C8.31843445,13.2176083 8.421851,13.2656231 8.49,13.35 C8.63055944,13.6052629 8.63055944,13.9147371 8.49,14.17 C8.42815094,14.2578305 8.32742206,14.3100603 8.22,14.31 C8.10596119,14.3149724 7.99703703,14.2623884 7.93,14.17 Z" id="Shape"></path>
                <polygon id="Shape" points="9.53 14.08 9.76 13.81 10.14 14.56 10.5 14.56 9.95 13.59 10.47 12.97 10.1 12.97 9.53 13.68 9.53 12.97 9.24 12.97 9.24 14.56 9.53 14.56"></polygon>
                <path d="M4.67,16.34 C4.5744845,16.2895911 4.47393119,16.2493697 4.37,16.22 C4.27678038,16.2071667 4.18779358,16.172941 4.11,16.12 C4.08312455,16.0936675 4.06797959,16.0576256 4.06797959,16.02 C4.06797959,15.9823744 4.08312455,15.9463325 4.11,15.92 C4.16425937,15.8781878 4.23156808,15.8569324 4.3,15.86 C4.36569433,15.8544272 4.43078824,15.8761251 4.48,15.92 C4.52775569,15.9641097 4.55645096,16.0250872 4.56,16.09 L4.84,16.09 C4.84421297,15.9589097 4.7934579,15.832022 4.7,15.74 C4.59278487,15.6459607 4.45219568,15.5990976 4.31,15.61 C4.21439104,15.6093648 4.11948004,15.6263132 4.03,15.66 C3.95996032,15.6970533 3.90122622,15.7523324 3.86,15.82 C3.82770873,15.8751785 3.80727411,15.9364824 3.8,16 C3.79543869,16.1203737 3.84278219,16.2369116 3.93,16.32 C4.02030506,16.3954885 4.12615475,16.4501206 4.24,16.48 C4.31905291,16.4946188 4.39620646,16.5181004 4.47,16.55 C4.50879879,16.5590228 4.54378041,16.5800118 4.57,16.61 C4.58002564,16.6425795 4.58002564,16.6774205 4.57,16.71 C4.57240434,16.7683996 4.54630318,16.8243306 4.5,16.86 C4.44629712,16.9106734 4.37358187,16.9361237 4.3,16.93 C4.22209299,16.932641 4.14640307,16.9038068 4.09,16.85 C4.03159829,16.7868595 3.99634387,16.7057743 3.99,16.62 L3.72,16.62 C3.7241304,16.7729624 3.7846802,16.9189942 3.89,17.03 C3.99984532,17.1272643 4.14347505,17.1775347 4.29,17.17 C4.39642028,17.1722249 4.5020952,17.1517717 4.6,17.11 C4.67971827,17.0960121 4.75310988,17.0575689 4.81,17 C4.85738708,16.9253532 4.88173382,16.8384006 4.88,16.75 C4.89817331,16.6676575 4.89817331,16.5823425 4.88,16.5 C4.8335699,16.4212985 4.75820225,16.3638755 4.67,16.34 Z" id="Shape"></path>
                <polygon id="Shape" points="4.99 15.89 5.41 15.89 5.41 17.21 5.69 17.21 5.69 15.89 6.1 15.89 6.1 15.63 4.99 15.63"></polygon>
                <polygon id="Shape" points="6.67 16.51 7.26 16.51 7.26 16.25 6.67 16.25 6.67 15.89 7.42 15.89 7.42 15.63 6.38 15.63 6.38 17.21 7.45 17.21 7.45 16.94 6.67 16.94"></polygon>
                <polygon id="Shape" points="8.63 16.68 8.06 15.63 7.79 15.63 7.79 17.21 8.05 17.21 8.05 16.18 8.61 17.21 8.89 17.21 8.89 15.63 8.63 15.63"></polygon>
                <path d="M10.36,15.82 C10.2404435,15.673571 10.0588703,15.5920483 9.87,15.6 C9.76357972,15.5977751 9.6579048,15.6182283 9.56,15.66 C9.49072536,15.6976849 9.42955928,15.7486567 9.38,15.81 C9.32870601,15.8747474 9.28508214,15.9452167 9.25,16.02 C9.20676744,16.1522455 9.18647481,16.2909119 9.19,16.43 C9.17774898,16.6418359 9.24158582,16.8510789 9.37,17.02 C9.49626814,17.1632065 9.67911162,17.2436576 9.87,17.24 C10.0579781,17.2434553 10.2376761,17.1627746 10.36,17.02 C10.6,16.656 10.6,16.184 10.36,15.82 Z M10.14,16.82 C10.077105,16.9054002 9.97598236,16.9540889 9.87,16.95 C9.76123961,16.9539778 9.65714773,16.9056494 9.59,16.82 C9.51116001,16.6982881 9.47267131,16.5548303 9.48,16.41 C9.46974889,16.2648742 9.50848212,16.1205049 9.59,16 C9.65502088,15.9105858 9.75945608,15.8583682 9.87,15.86 C9.98016506,15.86 10.083901,15.911868 10.15,16 C10.2905594,16.2552629 10.2905594,16.5647371 10.15,16.82 L10.14,16.82 Z" id="Shape"></path>
                <path d="M6.6,13.9 L6.81,14.21 L7.01,14.56 L7.35,14.56 L7.18,14.25 C7.18,14.16 7.01,13.96 6.93,13.84 C7.0109758,13.8176046 7.08384702,13.7724938 7.14,13.71 C7.20059047,13.625619 7.23217124,13.5238588 7.23,13.42 C7.23260838,13.3328117 7.21189537,13.2465074 7.17,13.17 C7.1405973,13.0914069 7.07859307,13.0294027 7,13 C6.89100735,12.9789469 6.77899265,12.9789469 6.67,13 L6.09,13 L6.09,14.59 L6.37,14.59 L6.37,13.9 L6.6,13.9 Z M6.37,13.24 L6.8,13.24 C6.84093736,13.2430882 6.87801049,13.2653321 6.9,13.3 C6.91722296,13.341622 6.91722296,13.388378 6.9,13.43 C6.90900142,13.4694936 6.90900142,13.5105064 6.9,13.55 C6.88333394,13.5806877 6.85412667,13.6025931 6.82,13.61 C6.73742767,13.625927 6.65257233,13.625927 6.57,13.61 L6.37,13.61 L6.37,13.24 Z" id="Shape"></path>
                <polygon id="Shape" points="0 0 0 23.92 16.16 23.92 16.16 22.42 1.5 22.42 1.5 1.5 22.42 1.5 22.42 22.42 19.79 22.42 19.79 16.93 14.63 16.93 14.63 18.45 18.25 18.45 18.25 22.42 18.25 23.92 19.79 23.92 23.92 23.92 23.92 0"></polygon>
                <path d="M41.76,12.08 L41.76,13.08 L32.07,13.08 L32.07,12.08 L36.34,12.08 L36.34,10.72 L37.48,10.72 L37.48,12.08 L41.76,12.08 Z M40.6,11.27 C40.2,11.1166667 39.8,10.9566667 39.4,10.79 L38.4,10.33 C38.0245052,10.16313 37.6632992,9.96580446 37.32,9.74 C37.1638643,9.64669858 37.0333014,9.51613571 36.94,9.36 C36.8571341,9.5205954 36.7283289,9.65288181 36.57,9.74 C36.2241101,9.96146109 35.8632398,10.1586032 35.49,10.33 L34.49,10.79 C34.0966667,10.9633333 33.6966667,11.1233333 33.29,11.27 L32.85,10.34 C33.39,10.14 33.87,9.95 34.29,9.77 C34.71,9.59 35.06,9.43 35.29,9.28 C35.4618383,9.18525101 35.6287226,9.08178275 35.79,8.97 C35.9164252,8.88169171 36.0278444,8.77364879 36.12,8.65 C36.2093961,8.54326915 36.271207,8.41621344 36.3,8.28 C36.3345215,8.11222625 36.3512806,7.94128376 36.35,7.77 L36.35,7.07 L37.47,7.07 L37.47,7.77 C37.466579,7.94194413 37.4867673,8.11354454 37.53,8.28 C37.5614872,8.41649268 37.6192263,8.54555655 37.7,8.66 C37.7801158,8.78943664 37.8815462,8.90439109 38,9 C38.166112,9.11499162 38.3398455,9.21856349 38.52,9.31 C38.81,9.45 39.17,9.62 39.59,9.8 C40.01,9.98 40.49,10.18 41.02,10.37 L40.6,11.27 Z M33.32,14.1 L40.41,14.1 L40.41,17.59 L39.27,17.59 L39.27,15.06 L33.27,15.06 L33.32,14.1 Z" id="Shape"></path>
                <path d="M42.94,14.28 C43.55,13.92 44.07,13.6 44.49,13.28 C44.8574386,13.0469417 45.211342,12.7931997 45.55,12.52 C45.7949734,12.323106 46.0194447,12.101985 46.22,11.86 C46.3652399,11.67627 46.4862334,11.474614 46.58,11.26 C46.6615274,11.055812 46.7088285,10.8395783 46.72,10.62 C46.72,10.4 46.72,10.15 46.72,9.88 L46.72,8.87 L43.14,8.87 L43.14,7.87 L47.88,7.87 L47.88,9.87 C47.88,10.21 47.88,10.52 47.88,10.8 C47.8600928,11.0699211 47.8028822,11.3357823 47.71,11.59 C47.608192,11.8524489 47.4738058,12.1010634 47.31,12.33 C47.0852628,12.6133999 46.8304381,12.8715776 46.55,13.1 C46.1642282,13.422916 45.7602297,13.7234107 45.34,14 C44.85,14.33 44.26,14.71 43.57,15.13 L42.94,14.28 Z M50.11,17.49 L50.11,6.93 L51.25,6.93 L51.25,17.49 L50.11,17.49 Z" id="Shape"></path>
                <path d="M56.05,12.18 C55.9893633,12.3209649 55.9085144,12.4523444 55.81,12.57 C55.71,12.7 55.56,12.87 55.38,13.07 C55.2,13.27 54.87,13.61 54.57,13.91 L53.57,14.91 L52.82,14.14 C53.4544364,13.582668 54.0586315,12.9918253 54.63,12.37 C54.7875619,12.1956548 54.9344939,12.0119898 55.07,11.82 C55.1740625,11.662972 55.2612145,11.495372 55.33,11.32 C55.3996908,11.1606546 55.4468116,10.9923661 55.47,10.82 C55.4855865,10.6303197 55.4855865,10.4396803 55.47,10.25 L55.47,7.69 L56.62,7.69 L56.62,10.24 C56.6033903,10.4429941 56.6033903,10.6470059 56.62,10.85 C56.6500656,11.0284729 56.7003909,11.2029339 56.77,11.37 C56.8480401,11.5416098 56.9417719,11.7056405 57.05,11.86 C57.1898017,12.0450783 57.3400457,12.2220324 57.5,12.39 C57.74,12.66 57.99,12.92 58.26,13.18 L59.18,14.02 L58.45,14.8 C58.05,14.43 57.72,14.11 57.45,13.8 C57.18,13.49 56.93,13.28 56.71,13.04 L56.28,12.55 C56.1766391,12.4265994 56.0923686,12.2883958 56.03,12.14 L56.05,12.18 Z M62.8,11.73 L61.18,11.73 L61.18,17.49 L60,17.49 L60,6.93 L61.14,6.93 L61.14,10.74 L62.8,10.74 L62.8,11.73 Z" id="Shape"></path>
                <path d="M67.62,17.49 L67.62,14 L63.34,14 L63.34,13 L73,13 L73,14 L68.76,14 L68.76,17.47 L67.62,17.49 Z M71.62,11.84 L64.73,11.84 L64.73,7.52 L71.65,7.52 L71.62,11.84 Z M65.82,10.89 L70.5,10.89 L70.5,8.47 L65.85,8.47 L65.82,10.89 Z" id="Shape"></path>
                <path d="M83.46,15.12 L83.46,16.12 L73.77,16.12 L73.77,15.12 L78,15.12 L78,12.85 L79.14,12.85 L79.14,15.12 L83.46,15.12 Z M78.61,10.74 C78.5006776,10.9331366 78.3545961,11.1029988 78.18,11.24 C77.8910579,11.4837114 77.5834482,11.704388 77.26,11.9 L76.2,12.56 C75.82,12.78 75.4,13.03 74.91,13.3 L74.35,12.4 L75.61,11.69 C75.99,11.47 76.38,11.23 76.76,10.97 C76.9876276,10.8224863 77.2017918,10.6551705 77.4,10.47 C77.5590382,10.3243108 77.6910697,10.1516542 77.79,9.96 C77.893456,9.78137793 77.961371,9.5844245 77.99,9.38 C78.0110065,9.13388893 78.0143484,8.88658884 78,8.64 L78,7.64 L79.15,7.64 L79.15,8.64 C79.1327914,8.88636653 79.1327914,9.13363347 79.15,9.38 C79.1801981,9.58720102 79.2479763,9.78714666 79.35,9.97 C79.4624358,10.1638937 79.6041007,10.3392883 79.77,10.49 C80.0058375,10.6949197 80.2565227,10.8820979 80.52,11.05 C80.88,11.29 81.23,11.51 81.59,11.71 C81.95,11.91 82.36,12.15 82.81,12.39 L82.26,13.27 L81.01,12.56 C80.6,12.32 80.23,12.1 79.89,11.88 C79.5733114,11.6826676 79.2693756,11.4655706 78.98,11.23 C78.803961,11.0985521 78.6574701,10.9316206 78.55,10.74 L78.61,10.74 Z" id="Shape"></path>
                <path d="M87.65,14.19 C88.4233333,13.7433333 89.0733333,13.3433333 89.6,12.99 C90.0638746,12.6803687 90.511158,12.3465751 90.94,11.99 C91.243212,11.7449089 91.5212518,11.470219 91.77,11.17 C91.9626618,10.9426604 92.1179351,10.6861219 92.23,10.41 C92.3299351,10.1539166 92.3906194,9.88420818 92.41,9.61 C92.4262655,9.29687776 92.4262655,8.98312224 92.41,8.67 L92.41,7.39 L87.91,7.39 L87.91,6.16 L93.91,6.16 L93.91,8.71 C93.91,9.15 93.91,9.54 93.91,9.89 C93.8830384,10.2309402 93.8124627,10.567015 93.7,10.89 C93.57124,11.21778 93.3997576,11.5271208 93.19,11.81 C92.8936176,12.1783424 92.5583424,12.5136176 92.19,12.81 C91.7833333,13.15 91.2733333,13.53 90.66,13.95 C90.05,14.36 89.31,14.83 88.43,15.36 L87.65,14.19 Z M96.65,18.19 L96.65,4.94 L98.1,4.94 L98.1,18.22 L96.65,18.19 Z" id="Shape"></path>
                <path d="M112.39,12 L112.39,13.18 L100.2,13.18 L100.2,12 L105.58,12 L105.58,11 L102,11 L102,7.61 L109.2,7.61 L109.2,6.55 L101.93,6.55 L101.93,5.39 L110.6,5.39 L110.6,8.73 L103.4,8.73 L103.4,9.73 L110.86,9.73 L110.86,11 L107,11 L107,12 L112.39,12 Z M101.77,14.19 L110.69,14.19 L110.69,18.34 L109.26,18.34 L109.26,15.43 L101.77,15.43 L101.77,14.19 Z" id="Shape"></path>
            </g>
        </g>
    </g>
</svg>