<?xml version="1.0" encoding="UTF-8"?>
<svg width="77px" height="77px" viewBox="0 0 77 77" version="1.1" xmlns="http://www.w3.org/2000/svg" xmlns:xlink="http://www.w3.org/1999/xlink">
    <!-- Generator: Sketch 50.2 (55047) - http://www.bohemiancoding.com/sketch -->
    <title> </title>
    <desc>Created with Sketch.</desc>
    <defs>
        <polygon id="path-1" points="0 77 76.1548333 77 76.1548333 0.845166667 0 0.845166667"></polygon>
    </defs>
    <g id="Page-1" stroke="none" stroke-width="1" fill="none" fill-rule="evenodd">
        <g id="Desktop" transform="translate(-62.000000, -123.000000)">
            <g id="main_회사소개" transform="translate(0.000000, 52.000000)">
                <g id="-" transform="translate(62.000000, 71.000000)">
                    <polygon id="Fill-1" fill="#FFFFFF" points="40 10 23 10 23 14.7411917 35.1128651 14.7411917 35.1128651 28 40 28"></polygon>
                    <polygon id="Fill-2" fill="#FFFFFF" points="57.0231805 47.1375406 57.0231805 44.08514 63.3904629 44.08514 63.3904629 39.4807338 51.148944 39.4807338 51.148944 36.2311068 62.7336817 36.2311068 62.7336817 23.7634512 51.148944 23.7634512 51.148944 10 46.2295239 10 46.2295239 28.364171 46.2607992 28.364171 58.0755022 28.364171 58.0755022 31.6285438 46.2607992 31.6285438 46.2607992 44.08514 52.0393701 44.08514 52.0393701 47.1375406 42 47.1375406 42 52 67 52 67 47.1375406"></polygon>
                    <g id="Group-16">
                        <path d="M12.79575,46.9335167 C13.1385833,47.1535167 13.5455833,47.26535 14.0075833,47.26535 C14.3724167,47.26535 14.73725,47.1865167 15.0929167,47.02885 C15.4504167,46.8730167 15.7199167,46.69335 15.90875,46.4825167 L15.90875,44.47685 L13.9764167,44.47685 L13.9764167,45.3256833 L15.0030833,45.3256833 L15.0030833,45.96735 C14.8674167,46.0846833 14.7024167,46.18735 14.5154167,46.2716833 C14.3284167,46.35235 14.1395833,46.3945167 13.9544167,46.3945167 C13.57125,46.3945167 13.2669167,46.24235 13.0304167,45.9471833 C12.79575,45.6465167 12.68025,45.1991833 12.68025,44.6015167 C12.68025,44.0460167 12.79575,43.6261833 13.02675,43.3456833 C13.25775,43.0651833 13.57125,42.9240167 13.96175,42.9240167 C14.2184167,42.9240167 14.43475,42.9955167 14.6089167,43.1366833 C14.78125,43.2815167 14.8985833,43.4795167 14.9645833,43.72335 L15.8519167,43.5345167 C15.7620833,43.07435 15.56225,42.7095167 15.2524167,42.4455167 C14.9425833,42.1851833 14.5135833,42.0550167 13.96175,42.0550167 C13.5345833,42.0550167 13.18075,42.13935 12.8984167,42.3080167 C12.5225833,42.52435 12.2420833,42.8341833 12.0459167,43.24485 C11.8515833,43.65185 11.75625,44.1175167 11.75625,44.64185 C11.75625,45.12585 11.8405833,45.5731833 12.01475,45.98385 C12.1889167,46.39635 12.4510833,46.7116833 12.79575,46.9335167" id="Fill-3" fill="#FFFFFF"></path>
                        <mask id="mask-2" fill="white">
                            <use xlink:href="#path-1"></use>
                        </mask>
                        <g id="Clip-6"></g>
                        <polygon id="Fill-5" fill="#FFFFFF" mask="url(#mask-2)" points="17.2131667 47.1808333 18.1078333 47.1808333 18.1078333 42.1391667 17.2131667 42.1391667"></polygon>
                        <path d="M25.2369333,45.9550667 C25.0059333,45.6580667 24.8904333,45.2254 24.8904333,44.6570667 C24.8904333,44.0759 25.0004333,43.6432333 25.2296,43.3554 C25.4551,43.0657333 25.7502667,42.9245667 26.1206,42.9245667 C26.4909333,42.9245667 26.7916,43.0639 27.0134333,43.3499 C27.2352667,43.6340667 27.3452667,44.0649 27.3452667,44.6424 C27.3452667,45.2254 27.2316,45.6654 27.0024333,45.9550667 C26.7732667,46.2502333 26.4799333,46.3950667 26.1206,46.3950667 C25.7631,46.3950667 25.4697667,46.2484 25.2369333,45.9550667 M27.6862667,46.5747333 C28.0767667,46.1164 28.2711,45.4802333 28.2711,44.6662333 C28.2711,43.8449 28.0749333,43.2050667 27.6826,42.7467333 C27.2902667,42.2847333 26.7677667,42.0555667 26.1114333,42.0555667 C25.7502667,42.0555667 25.4294333,42.1215667 25.1544333,42.2554 C24.9472667,42.3525667 24.7547667,42.5029 24.5787667,42.7064 C24.4064333,42.9117333 24.2671,43.1445667 24.1662667,43.3975667 C24.0306,43.7459 23.9627667,44.1804 23.9627667,44.6882333 C23.9627667,45.4894 24.1571,46.1200667 24.5476,46.5784 C24.9399333,47.0367333 25.4624333,47.2640667 26.1242667,47.2640667 C26.7787667,47.2640667 27.2957667,47.0367333 27.6862667,46.5747333" id="Fill-7" fill="#FFFFFF" mask="url(#mask-2)"></path>
                        <polygon id="Fill-8" fill="#FFFFFF" mask="url(#mask-2)" points="30.3251667 45.6578833 31.0548333 44.8127167 32.274 47.1813833 33.4363333 47.1813833 31.6745 44.10505 33.3465 42.1397167 32.1401667 42.1397167 30.3251667 44.3782167 30.3251667 42.1397167 29.4323333 42.1397167 29.4323333 47.1813833 30.3251667 47.1813833"></polygon>
                        <path d="M14.8743833,52.8452833 C14.66355,52.7206167 14.3408833,52.60145 13.9063833,52.4822833 C13.47005,52.3667833 13.19505,52.2531167 13.07955,52.14495 C12.9933833,52.0606167 12.94755,51.9616167 12.94755,51.8387833 C12.94755,51.7086167 12.9952167,51.60595 13.09055,51.5271167 C13.2372167,51.4061167 13.4407167,51.3456167 13.6992167,51.3456167 C13.95405,51.3456167 14.1447167,51.4006167 14.26755,51.5142833 C14.3977167,51.6261167 14.4802167,51.8131167 14.5168833,52.0752833 L15.4133833,52.0276167 C15.40055,51.5656167 15.2502167,51.1971167 14.9697167,50.9166167 C14.6873833,50.64345 14.26755,50.5022833 13.7102167,50.5022833 C13.3673833,50.5022833 13.07955,50.5572833 12.83755,50.67645 C12.59555,50.7937833 12.4122167,50.9642833 12.28205,51.18795 C12.1537167,51.4097833 12.0913833,51.6536167 12.0913833,51.9102833 C12.0913833,52.3081167 12.2252167,52.64545 12.49655,52.92045 C12.6927167,53.11845 13.03005,53.2852833 13.51405,53.4172833 C13.8843833,53.5272833 14.12455,53.6006167 14.22905,53.6391167 C14.3793833,53.70145 14.48755,53.7747833 14.5517167,53.8591167 C14.6122167,53.94345 14.6452167,54.0461167 14.6452167,54.1616167 C14.6452167,54.3486167 14.57005,54.5117833 14.4233833,54.6492833 C14.2803833,54.7886167 14.0622167,54.85645 13.7707167,54.85645 C13.4993833,54.85645 13.2848833,54.7776167 13.1198833,54.6236167 C12.9622167,54.4677833 12.8522167,54.2221167 12.8027167,53.8902833 L11.9282167,53.98745 C11.9887167,54.55395 12.16655,54.9792833 12.46905,55.2762833 C12.7697167,55.57145 13.2023833,55.71445 13.76155,55.71445 C14.1483833,55.71445 14.4692167,55.6557833 14.7277167,55.53295 C14.98805,55.41195 15.1878833,55.2231167 15.32905,54.9701167 C15.47205,54.7171167 15.5398833,54.4476167 15.5398833,54.1616167 C15.5398833,53.8407833 15.4812167,53.5731167 15.3657167,53.3586167 C15.24655,53.1386167 15.08155,52.96995 14.8743833,52.8452833" id="Fill-9" fill="#FFFFFF" mask="url(#mask-2)"></path>
                        <polygon id="Fill-10" fill="#FFFFFF" mask="url(#mask-2)" points="15.8984833 51.43985 17.2184833 51.43985 17.2184833 55.6271833 18.1149833 55.6271833 18.1149833 51.43985 19.4294833 51.43985 19.4294833 50.5891833 15.8984833 50.5891833"></polygon>
                        <polygon id="Fill-11" fill="#FFFFFF" mask="url(#mask-2)" points="21.2175333 53.4064667 23.1278667 53.4064667 23.1278667 52.5576333 21.2175333 52.5576333 21.2175333 51.4393 23.6173667 51.4393 23.6173667 50.5886333 20.3210333 50.5886333 20.3210333 55.6266333 23.6998667 55.6266333 23.6998667 54.7778 21.2175333 54.7778"></polygon>
                        <polygon id="Fill-12" fill="#FFFFFF" mask="url(#mask-2)" points="27.4748833 53.9535333 25.65255 50.5893667 24.7817167 50.5893667 24.7817167 55.6273667 25.6158833 55.6273667 25.6158833 52.3420333 27.4107167 55.6273667 28.3053833 55.6273667 28.3053833 50.5893667 27.4748833 50.5893667"></polygon>
                        <path d="M32.2945333,54.4056333 C32.0672,54.6989667 31.7738667,54.8438 31.4163667,54.8438 C31.0588667,54.8438 30.7618667,54.6989667 30.5327,54.4038 C30.2998667,54.1086333 30.1843667,53.6759667 30.1843667,53.1039667 C30.1843667,52.5264667 30.2925333,52.0883 30.5217,51.8041333 C30.7490333,51.5144667 31.0460333,51.3696333 31.4163667,51.3696333 C31.7867,51.3696333 32.0837,51.5144667 32.3092,51.7968 C32.5310333,52.0828 32.6410333,52.5136333 32.6410333,53.0911333 C32.6410333,53.6759667 32.5273667,54.1123 32.2945333,54.4056333 M32.9783667,51.1936333 C32.5878667,50.7353 32.0617,50.5024667 31.4090333,50.5024667 C31.0460333,50.5024667 30.7270333,50.5703 30.4502,50.7023 C30.2430333,50.7994667 30.0505333,50.9516333 29.8782,51.1588 C29.7022,51.3586333 29.5628667,51.5914667 29.4620333,51.8463 C29.3263667,52.1946333 29.2603667,52.6254667 29.2603667,53.1388 C29.2603667,53.9399667 29.4547,54.5706333 29.8452,55.0253 C30.2357,55.4836333 30.7582,55.7128 31.4200333,55.7128 C32.0727,55.7128 32.5915333,55.4836333 32.9838667,55.0234667 C33.3725333,54.5669667 33.5668667,53.9289667 33.5668667,53.1149667 C33.5668667,52.2936333 33.3707,51.6538 32.9783667,51.1936333" id="Fill-13" fill="#FFFFFF" mask="url(#mask-2)"></path>
                        <path d="M20.2884,42.9902 L20.9905667,42.9902 C21.3517333,42.9902 21.5699,42.9993667 21.6432333,43.0103667 C21.7880667,43.0378667 21.8999,43.1038667 21.9805667,43.2047 C22.0612333,43.3128667 22.0997333,43.4485333 22.0997333,43.6172 C22.0997333,43.7693667 22.0722333,43.8940333 22.0062333,43.9985333 C21.9475667,44.0975333 21.8632333,44.1672 21.7569,44.2112 C21.6505667,44.2515333 21.3847333,44.2717 20.9520667,44.2717 L20.2884,44.2717 L20.2884,42.9902 Z M21.0254,45.0875333 C21.2399,45.4083667 21.5204,45.8410333 21.6634,46.0830333 L22.3124,47.1812 L23.3849,47.1812 L22.8440667,46.1948667 C22.6919,45.9180333 22.3197333,45.2965333 22.0759,44.9042 C22.3509,44.8217 22.5727333,44.6878667 22.7304,44.4898667 C22.9265667,44.2442 23.0237333,43.9307 23.0237333,43.5530333 C23.0237333,43.2578667 22.9595667,42.9902 22.8312333,42.7610333 C22.7010667,42.5282 22.5287333,42.3650333 22.3124,42.2770333 C22.0997333,42.1853667 21.7569,42.1395333 21.2784,42.1395333 L19.3900667,42.1395333 L19.3900667,47.1812 L20.2884,47.1812 L20.2884,45.0875333 L21.0254,45.0875333 Z" id="Fill-14" fill="#FFFFFF" mask="url(#mask-2)"></path>
                        <polygon id="Fill-15" fill="#FFFFFF" mask="url(#mask-2)" points="0 0.844983333 0 76.9998167 51.4506667 76.9998167 51.4506667 72.20565 4.79233333 72.20565 4.79233333 5.63365 71.3643333 5.63365 71.3643333 72.20565 62.9951667 72.20565 62.9951667 54.74865 46.5813333 54.74865 46.5813333 59.58865 58.0928333 59.58865 58.0928333 72.20565 58.0928333 76.9998167 62.9951667 76.9998167 76.1548333 76.9998167 76.1548333 0.844983333"></polygon>
                    </g>
                </g>
            </g>
        </g>
    </g>
</svg>