<?xml version="1.0" encoding="UTF-8"?>
<svg width="52px" height="52px" viewBox="0 0 52 52" version="1.1" xmlns="http://www.w3.org/2000/svg" xmlns:xlink="http://www.w3.org/1999/xlink">
    <!-- Generator: Sketch 50.2 (55047) - http://www.bohemiancoding.com/sketch -->
    <title>XMLID_707_</title>
    <desc>Created with Sketch.</desc>
    <defs></defs>
    <g id="Page-1" stroke="none" stroke-width="1" fill="none" fill-rule="evenodd">
        <g id="Desktop" transform="translate(-675.000000, -2264.000000)" fill="#FFFFFF" fill-rule="nonzero">
            <g id="main_접수-copy" transform="translate(531.000000, 1972.000000)">
                <g id="Phone" transform="translate(144.000000, 292.000000)">
                    <g id="Layer_1">
                        <path d="M50.2256911,6.62829671 L50.1107524,6.51335794 L43.9040585,1.11123549 C43.0420177,0.306664062 41.8926299,-0.0956216526 40.6283034,0.0193171229 C39.536385,0.134255898 38.4444667,0.594011 37.6398952,1.39858243 L37.4674871,1.57099059 L31.375732,9.27188855 C29.7665891,10.9959702 29.8240585,13.639562 31.4906707,15.3061743 C31.6056095,15.421113 31.7205483,15.5360518 31.8354871,15.5935212 L34.938834,17.6624192 C34.7089564,18.7543375 33.0998136,21.8576845 27.4103442,27.5471539 C21.7783442,33.1791539 18.6175279,34.7882967 17.5830789,35.0181743 L15.5141809,31.9148273 C15.4567115,31.7998886 15.3417728,31.6849498 15.226834,31.570011 C13.5602218,29.9033988 10.8591605,29.9033988 9.19254828,31.4550722 L1.54911971,37.5468273 L1.37671155,37.7192355 C-0.347370083,39.4433171 -0.462308858,42.3167865 1.08936461,43.9833988 L6.49148706,50.1326232 L6.60642584,50.247562 C7.64087482,51.282011 9.25001767,51.6842967 11.0315687,51.6842967 C14.192385,51.6842967 17.8129564,50.4199702 19.7094462,49.6728681 C23.3874871,48.2361334 30.5711605,44.7305008 37.6973646,37.6042967 C42.9845483,32.317113 47.237283,25.938011 49.765936,19.6163783 C50.800385,16.742909 53.2140993,9.61670488 50.2256911,6.62829671 Z M34.3641401,34.4434804 C23.7323034,45.0753171 11.7786707,48.0062559 9.76724216,47.0292763 L4.53752788,40.9949906 L12.0085483,35.0756437 L14.0199769,38.1215212 C14.0774462,38.1789906 14.0774462,38.23646 14.1349156,38.2939294 C14.8245483,39.1559702 15.8015279,39.6157253 16.9509156,39.6731947 C18.042834,39.7306641 21.4335279,39.9030722 30.5711605,30.7654396 C32.8124667,28.5241334 39.7087932,21.6278069 39.4789156,17.1451947 C39.4214462,15.9958069 38.9042218,15.0188273 38.0996503,14.3291947 C38.0421809,14.2717253 37.9847115,14.2142559 37.9272422,14.2142559 L34.9963034,12.1453579 L40.9156503,4.61686814 L46.8924667,9.84658243 C47.9269156,11.858011 44.9959769,23.8116437 34.3641401,34.4434804 Z" id="XMLID_707_"></path>
                    </g>
                </g>
            </g>
        </g>
    </g>
</svg>